<mxfile host="drawio-plugin" modified="2022-09-21T12:24:18.646Z" agent="5.0 (X11; Linux x86_64) AppleWebKit/537.36 (KHTML, like Gecko) Chrome/98.0.4758.102 Safari/537.36" etag="OYJOV8XDuBaX_t7nVxIj" version="15.5.4" type="embed"><diagram id="C5RBs43oDa-KdzZeNtuy" name="Page-1"><mxGraphModel dx="1446" dy="413" grid="1" gridSize="10" guides="1" tooltips="1" connect="1" arrows="1" fold="1" page="1" pageScale="1" pageWidth="827" pageHeight="1169" math="0" shadow="0"><root><mxCell id="WIyWlLk6GJQsqaUBKTNV-0"/><mxCell id="WIyWlLk6GJQsqaUBKTNV-1" parent="WIyWlLk6GJQsqaUBKTNV-0"/><mxCell id="QGiOCt_fwViVEIDSXUir-0" value="Plant" style="swimlane;fontStyle=1;childLayout=stackLayout;horizontal=1;startSize=26;horizontalStack=0;resizeParent=1;resizeParentMax=0;resizeLast=0;collapsible=1;marginBottom=0;" parent="WIyWlLk6GJQsqaUBKTNV-1" vertex="1"><mxGeometry x="330" y="220" width="160" height="60" as="geometry"/></mxCell><mxCell id="QGiOCt_fwViVEIDSXUir-1" value="- foodProduction: int" style="text;strokeColor=none;fillColor=none;align=left;verticalAlign=top;spacingLeft=4;spacingRight=4;overflow=hidden;rotatable=0;points=[[0,0.5],[1,0.5]];portConstraint=eastwest;" parent="QGiOCt_fwViVEIDSXUir-0" vertex="1"><mxGeometry y="26" width="160" height="26" as="geometry"/></mxCell><mxCell id="QGiOCt_fwViVEIDSXUir-2" value="" style="line;strokeWidth=1;fillColor=none;align=left;verticalAlign=middle;spacingTop=-1;spacingLeft=3;spacingRight=3;rotatable=0;labelPosition=right;points=[];portConstraint=eastwest;" parent="QGiOCt_fwViVEIDSXUir-0" vertex="1"><mxGeometry y="52" width="160" height="8" as="geometry"/></mxCell><mxCell id="QGiOCt_fwViVEIDSXUir-22" style="edgeStyle=orthogonalEdgeStyle;rounded=0;orthogonalLoop=1;jettySize=auto;html=1;endArrow=blockThin;endFill=0;endSize=14;" parent="WIyWlLk6GJQsqaUBKTNV-1" source="QGiOCt_fwViVEIDSXUir-3" target="QGiOCt_fwViVEIDSXUir-0" edge="1"><mxGeometry relative="1" as="geometry"><Array as="points"><mxPoint x="210" y="320"/><mxPoint x="410" y="320"/></Array></mxGeometry></mxCell><mxCell id="QGiOCt_fwViVEIDSXUir-3" value="Almond" style="swimlane;fontStyle=1;childLayout=stackLayout;horizontal=1;startSize=26;horizontalStack=0;resizeParent=1;resizeParentMax=0;resizeLast=0;collapsible=1;marginBottom=0;" parent="WIyWlLk6GJQsqaUBKTNV-1" vertex="1"><mxGeometry x="130" y="360" width="190" height="52" as="geometry"/></mxCell><mxCell id="QGiOCt_fwViVEIDSXUir-25" value="- FOOD_PRODUCTION = 50: int" style="text;strokeColor=none;fillColor=none;align=left;verticalAlign=top;spacingLeft=4;spacingRight=4;overflow=hidden;rotatable=0;points=[[0,0.5],[1,0.5]];portConstraint=eastwest;" parent="QGiOCt_fwViVEIDSXUir-3" vertex="1"><mxGeometry y="26" width="190" height="26" as="geometry"/></mxCell><mxCell id="QGiOCt_fwViVEIDSXUir-23" style="edgeStyle=orthogonalEdgeStyle;rounded=0;orthogonalLoop=1;jettySize=auto;html=1;endArrow=blockThin;endFill=0;endSize=14;" parent="WIyWlLk6GJQsqaUBKTNV-1" source="QGiOCt_fwViVEIDSXUir-4" target="QGiOCt_fwViVEIDSXUir-0" edge="1"><mxGeometry relative="1" as="geometry"/></mxCell><mxCell id="QGiOCt_fwViVEIDSXUir-4" value="Spruce" style="swimlane;fontStyle=1;childLayout=stackLayout;horizontal=1;startSize=26;horizontalStack=0;resizeParent=1;resizeParentMax=0;resizeLast=0;collapsible=1;marginBottom=0;" parent="WIyWlLk6GJQsqaUBKTNV-1" vertex="1"><mxGeometry x="330" y="360" width="190" height="52" as="geometry"/></mxCell><mxCell id="QGiOCt_fwViVEIDSXUir-26" value="- FOOD_PRODUCTION = 26: int" style="text;strokeColor=none;fillColor=none;align=left;verticalAlign=top;spacingLeft=4;spacingRight=4;overflow=hidden;rotatable=0;points=[[0,0.5],[1,0.5]];portConstraint=eastwest;" parent="QGiOCt_fwViVEIDSXUir-4" vertex="1"><mxGeometry y="26" width="190" height="26" as="geometry"/></mxCell><mxCell id="QGiOCt_fwViVEIDSXUir-24" style="edgeStyle=orthogonalEdgeStyle;rounded=0;orthogonalLoop=1;jettySize=auto;html=1;endArrow=blockThin;endFill=0;endSize=14;jumpSize=5;" parent="WIyWlLk6GJQsqaUBKTNV-1" source="QGiOCt_fwViVEIDSXUir-5" target="QGiOCt_fwViVEIDSXUir-0" edge="1"><mxGeometry relative="1" as="geometry"><Array as="points"><mxPoint x="610" y="320"/><mxPoint x="410" y="320"/></Array></mxGeometry></mxCell><mxCell id="QGiOCt_fwViVEIDSXUir-5" value="Juniper" style="swimlane;fontStyle=1;childLayout=stackLayout;horizontal=1;startSize=26;horizontalStack=0;resizeParent=1;resizeParentMax=0;resizeLast=0;collapsible=1;marginBottom=0;" parent="WIyWlLk6GJQsqaUBKTNV-1" vertex="1"><mxGeometry x="530" y="360" width="200" height="52" as="geometry"/></mxCell><mxCell id="QGiOCt_fwViVEIDSXUir-27" value="- FOOD_PRODUCTION = 14: int" style="text;strokeColor=none;fillColor=none;align=left;verticalAlign=top;spacingLeft=4;spacingRight=4;overflow=hidden;rotatable=0;points=[[0,0.5],[1,0.5]];portConstraint=eastwest;" parent="QGiOCt_fwViVEIDSXUir-5" vertex="1"><mxGeometry y="26" width="200" height="26" as="geometry"/></mxCell><mxCell id="QGiOCt_fwViVEIDSXUir-6" value="Farm" style="swimlane;fontStyle=1;childLayout=stackLayout;horizontal=1;startSize=26;horizontalStack=0;resizeParent=1;resizeParentMax=0;resizeLast=0;collapsible=1;marginBottom=0;" parent="WIyWlLk6GJQsqaUBKTNV-1" vertex="1"><mxGeometry x="20" y="50" width="230" height="86" as="geometry"/></mxCell><mxCell id="QGiOCt_fwViVEIDSXUir-7" value="- plants: List&lt;Plant&gt;" style="text;strokeColor=none;fillColor=none;align=left;verticalAlign=top;spacingLeft=4;spacingRight=4;overflow=hidden;rotatable=0;points=[[0,0.5],[1,0.5]];portConstraint=eastwest;" parent="QGiOCt_fwViVEIDSXUir-6" vertex="1"><mxGeometry y="26" width="230" height="26" as="geometry"/></mxCell><mxCell id="QGiOCt_fwViVEIDSXUir-8" value="" style="line;strokeWidth=1;fillColor=none;align=left;verticalAlign=middle;spacingTop=-1;spacingLeft=3;spacingRight=3;rotatable=0;labelPosition=right;points=[];portConstraint=eastwest;" parent="QGiOCt_fwViVEIDSXUir-6" vertex="1"><mxGeometry y="52" width="230" height="8" as="geometry"/></mxCell><mxCell id="QGiOCt_fwViVEIDSXUir-21" value="+ calculateProd(int months): int" style="text;strokeColor=none;fillColor=none;align=left;verticalAlign=top;spacingLeft=4;spacingRight=4;overflow=hidden;rotatable=0;points=[[0,0.5],[1,0.5]];portConstraint=eastwest;" parent="QGiOCt_fwViVEIDSXUir-6" vertex="1"><mxGeometry y="60" width="230" height="26" as="geometry"/></mxCell><mxCell id="QGiOCt_fwViVEIDSXUir-9" value="&lt;p style=&quot;margin:0px;margin-top:4px;text-align:center;&quot;&gt;&lt;u&gt;&lt;i&gt;&amp;lt;&amp;lt;Interface&amp;gt;&amp;gt;&lt;/i&gt;&lt;br&gt;&lt;b&gt;Growth&lt;/b&gt;&lt;/u&gt;&lt;/p&gt;&lt;hr size=&quot;1&quot;&gt;&lt;p style=&quot;margin:0px;margin-left:4px;&quot;&gt;&lt;br&gt;&lt;/p&gt;&lt;hr size=&quot;1&quot;&gt;&lt;p style=&quot;margin:0px;margin-left:4px;&quot;&gt;&lt;u&gt;+ leavesBonus(): int&lt;br&gt;&lt;/u&gt;&lt;/p&gt;" style="verticalAlign=top;align=left;overflow=fill;fontSize=12;fontFamily=Helvetica;html=1;" parent="WIyWlLk6GJQsqaUBKTNV-1" vertex="1"><mxGeometry x="610" y="490" width="190" height="140" as="geometry"/></mxCell><mxCell id="QGiOCt_fwViVEIDSXUir-15" value="&lt;p style=&quot;margin:0px;margin-top:4px;text-align:center;&quot;&gt;&lt;i&gt;&amp;lt;&amp;lt;Interface&amp;gt;&amp;gt;&lt;/i&gt;&lt;br&gt;&lt;b&gt;MushroomAndRot&lt;/b&gt;&lt;/p&gt;&lt;hr size=&quot;1&quot;&gt;&lt;p style=&quot;margin:0px;margin-left:4px;&quot;&gt;&lt;br&gt;&lt;/p&gt;&lt;hr size=&quot;1&quot;&gt;&lt;p style=&quot;margin:0px;margin-left:4px;&quot;&gt;+ mushroomBonus(): int&lt;br&gt;+ rotDecrease(): int&lt;/p&gt;" style="verticalAlign=top;align=left;overflow=fill;fontSize=12;fontFamily=Helvetica;html=1;" parent="WIyWlLk6GJQsqaUBKTNV-1" vertex="1"><mxGeometry x="-30" y="480" width="190" height="140" as="geometry"/></mxCell><mxCell id="QGiOCt_fwViVEIDSXUir-29" value="" style="endArrow=block;dashed=1;endFill=0;endSize=12;html=1;rounded=0;jumpSize=5;" parent="WIyWlLk6GJQsqaUBKTNV-1" source="QGiOCt_fwViVEIDSXUir-15" target="QGiOCt_fwViVEIDSXUir-3" edge="1"><mxGeometry width="160" relative="1" as="geometry"><mxPoint x="-50" y="450" as="sourcePoint"/><mxPoint x="110" y="450" as="targetPoint"/></mxGeometry></mxCell><mxCell id="QGiOCt_fwViVEIDSXUir-30" value="" style="endArrow=block;dashed=1;endFill=0;endSize=12;html=1;rounded=0;jumpSize=5;" parent="WIyWlLk6GJQsqaUBKTNV-1" source="QGiOCt_fwViVEIDSXUir-15" target="QGiOCt_fwViVEIDSXUir-4" edge="1"><mxGeometry width="160" relative="1" as="geometry"><mxPoint x="450" y="470" as="sourcePoint"/><mxPoint x="610" y="470" as="targetPoint"/></mxGeometry></mxCell><mxCell id="QGiOCt_fwViVEIDSXUir-31" value="" style="endArrow=block;dashed=1;endFill=0;endSize=12;html=1;rounded=0;jumpSize=5;" parent="WIyWlLk6GJQsqaUBKTNV-1" source="QGiOCt_fwViVEIDSXUir-9" target="QGiOCt_fwViVEIDSXUir-4" edge="1"><mxGeometry width="160" relative="1" as="geometry"><mxPoint x="430" y="480" as="sourcePoint"/><mxPoint x="590" y="480" as="targetPoint"/></mxGeometry></mxCell><mxCell id="QGiOCt_fwViVEIDSXUir-32" value="" style="endArrow=block;dashed=1;endFill=0;endSize=12;html=1;rounded=0;jumpSize=5;" parent="WIyWlLk6GJQsqaUBKTNV-1" source="QGiOCt_fwViVEIDSXUir-9" target="QGiOCt_fwViVEIDSXUir-5" edge="1"><mxGeometry width="160" relative="1" as="geometry"><mxPoint x="330" y="390" as="sourcePoint"/><mxPoint x="490" y="390" as="targetPoint"/></mxGeometry></mxCell><mxCell id="0" value="" style="endArrow=diamondThin;endFill=1;endSize=24;html=1;rounded=0;" edge="1" parent="WIyWlLk6GJQsqaUBKTNV-1" source="QGiOCt_fwViVEIDSXUir-0" target="QGiOCt_fwViVEIDSXUir-6"><mxGeometry width="160" relative="1" as="geometry"><mxPoint x="80" y="220" as="sourcePoint"/><mxPoint x="240" y="220" as="targetPoint"/></mxGeometry></mxCell></root></mxGraphModel></diagram></mxfile>